# Blender 5.0.1
# www.blender.org
o Cube
v 0.100000 1.000000 -0.100000
v 0.100000 -1.000000 -0.100000
v 0.100000 1.000000 0.100000
v 0.100000 -1.000000 0.100000
v -0.100000 1.000000 -0.100000
v -0.100000 -1.000000 -0.100000
v -0.100000 1.000000 0.100000
v -0.100000 -1.000000 0.100000
s 0
f 1 5 7 3
f 4 3 7 8
f 8 7 5 6
f 6 2 4 8
f 2 1 3 4
f 6 5 1 2
o Cube.001
v 0.150000 -0.900000 -0.150000
v 0.150000 -1.400000 -0.150000
v 0.150000 -0.900000 0.150000
v 0.150000 -1.400000 0.150000
v -0.150000 -0.900000 -0.150000
v -0.150000 -1.400000 -0.150000
v -0.150000 -0.900000 0.150000
v -0.150000 -1.400000 0.150000
s 0
f 9 13 15 11
f 12 11 15 16
f 16 15 13 14
f 14 10 12 16
f 10 9 11 12
f 14 13 9 10
